# xmcd
#
# Track frame offsets:
#	150
#	15444
#	31425
#	45655
#	58218
#	80961
#	94890
#	107903
#	118928
#	134226
#	149967
#	164041
#	183769
#	202453
#
# Disc length: 2949 seconds
# Revision: 0
# Processed by: cddbd v1.5.2PL0 Copyright (c) Steve Scherf et al.
# Submitted via: dBpowerAMP V12.0
#
DISCID=e70b830e
DTITLE=Tim Crahart Blues Band - TC No Drinkin' No Cheatin' No Shootin
DYEAR=2011
DGENRE=Gospel Blues
TTITLE0=Justified
TTITLE1=King's Highway Blues
TTITLE2=This Train
TTITLE3=Roll my Soul
TTITLE4=I want Jesus to walk with me
TTITLE5=(I dn't do) Voodoo
TTITLE6=Lonesome valley
TTITLE7=Devil's fool no more
TTITLE8=Shaky ground
TTITLE9=You got to move
TTITLE10=Can you tell me
TTITLE11=Everyday
TTITLE12=John the Revelator
TTITLE13=Lonely pilgrim
EXTD=
EXTT0=
EXTT1=
EXTT2=
EXTT3=
EXTT4=
EXTT5=
EXTT6=
EXTT7=
EXTT8=
EXTT9=
EXTT10=
EXTT11=
EXTT12=
EXTT13=
PLAYORDER=
